*******************************************************************************
         The Twilight Saga Breaking Dawn Part 1.2011.TS .Xvid - SiNiSTER
*******************************************************************************

-------------------------------------------------------------------------------
                              General Information
-------------------------------------------------------------------------------

[img]http://www.pix2links.com/image/reuWC.jpg[/img]


Format                           : AVI
Format/Info                      : Audio Video Interleave
File size                        : 1.36 GiB
Duration                         : 1h 46mn
Overall bit rate                 : 1 817 Kbps
Writing library                  : VirtualDub build 32839/release

Video
ID                               : 0
Format                           : MPEG-4 Visual
Format profile                   : Advanced Simple@L5
Format settings, BVOP            : Yes
Format settings, QPel            : Yes
Format settings, GMC             : 3 warppoints
Format settings, Matrix          : Default (H.263)
Muxing mode                      : Packed bitstream
Codec ID                         : XVID
Codec ID/Hint                    : XviD
Duration                         : 1h 46mn
Bit rate                         : 1 680 Kbps
Width                            : 720 pixels
Height                           : 304 pixels
Display aspect ratio             : 2.35:1
Frame rate                       : 24.000 fps
Color space                      : YUV
Chroma subsampling               : 4:2:0
Bit depth                        : 8 bits
Scan type                        : Progressive
Bits/(Pixel*Frame)               : 0.320
Stream size                      : 1.25 GiB (92%)
Writing library                  : XviD 64

Audio
ID                               : 1
Format                           : MPEG Audio
Format version                   : Version 1
Format profile                   : Layer 3
Mode                             : Joint stereo
Mode extension                   : MS Stereo
Codec ID                         : 55
Codec ID/Hint                    : MP3
Duration                         : 1h 46mn
Bit rate mode                    : Constant
Bit rate                         : 128 Kbps
Channel(s)                       : 2 channels
Sampling rate                    : 44.1 KHz
Stream size                      : 97.9 MiB (7%)
Alignment                        : Split accross interleaves
Interleave, duration             : 42 ms (1.00 video frame)
Interleave, preload duration     : 500 ms
Writing library                  : LAME3.98r


Video Source: MiSTERE.....thanks	
Audio Source: MiSTERE.....thanks


Greets:
DarkScene,HDScene,Noir,CrEwSaDe,blackjesus,ViSiON,HDLiTE,BTVRG,Twentyforty,UnKnOwN,
FLAWL3SS,Rx,Relizlab,MiSTERE,ILLUMiNATI,SAFCuk009,HiVE-CM8..... and everybody else we 
respect.. u know who u are
  
-------------------------------------------------------------------------------
                               Post Information
-------------------------------------------------------------------------------
Encoded by...........: SiNiSTER
 
Have sumthing to offer..looking for suppliers... cammers,cams,screeners, audio
supplier.. and any pre retail DVD/BR any RC...if u can provide any email us at
sinister@hushmail.me
-------------------------------------------------------------------------------
                                 Release Notes
-------------------------------------------------------------------------------

there are 2 small spots where Cam audio was used, and it has hardcoded subs plus 
etra scene after credits...
source was nice...i degrained, smoother , temoral smoother, adjusted RGB slightly,
hue, saturation, brightness, level and conrast then sharpened.. then just cleaned 
up the audio just a bit and remuxed back to my encode....enjoy 



-------------------------------------------------------------------------------
                                 ScreenShots
-------------------------------------------------------------------------------
 
http://www.pix2links.com/image/erbvP.png 
http://www.pix2links.com/image/4UH0a.png 
http://www.pix2links.com/image/IDRSU.png 
http://www.pix2links.com/image/eulKj.png 
http://www.pix2links.com/image/DX0A.jpg


-------------------------------------------------------------------------------

[img]http://leetleech.org/images/33506450373550172140.gif[/img]


-------------------------------------------------------------------------------
Generated with Cool NFO Creator - http://fly.to/coolbeans
-------------------------------------------------------------------------------